<svg xmlns="http://www.w3.org/2000/svg" xmlns:xlink="http://www.w3.org/1999/xlink" width="500" zoomAndPan="magnify" viewBox="0 0 375 374.999991" height="500" preserveAspectRatio="xMidYMid meet" version="1.0"><defs><g/></defs><rect x="-37.5" width="450" fill="#ffffff" y="-37.499999" height="449.999989" fill-opacity="1"/><rect x="-37.5" width="450" fill="#ffffff" y="-37.499999" height="449.999989" fill-opacity="1"/><g fill="#3b4b50" fill-opacity="1"><g transform="translate(118.794233, 237.291685)"><g><path d="M 10.25 0 L 44.316406 0 L 44.316406 -123.253906 C 44.316406 -141.257812 62.875 -144.304688 62.875 -144.304688 C 28.804688 -152.335938 10.25 -132.949219 10.25 -112.453125 Z M 71.738281 -104.144531 C 81.152344 -104.144531 88.632812 -111.621094 88.632812 -120.761719 C 88.632812 -130.179688 81.152344 -137.65625 71.738281 -137.65625 C 62.320312 -137.65625 54.839844 -130.179688 54.839844 -120.761719 C 54.839844 -111.621094 62.320312 -104.144531 71.738281 -104.144531 Z M 71.738281 -104.144531 "/></g></g></g><g fill="#3b4b50" fill-opacity="1"><g transform="translate(166.401834, 254.806903)"><g><path d="M 73.121094 0 L 107.1875 0 L 107.1875 -61.210938 C 107.1875 -88.078125 86.96875 -104.695312 56.226562 -88.355469 C 56.226562 -88.355469 73.121094 -90.015625 73.121094 -72.289062 Z M 11.632812 0 L 45.976562 0 L 45.976562 -92.234375 L 11.632812 -92.234375 Z M 11.632812 0 "/></g></g></g><g fill="#535947" fill-opacity="1"><g transform="translate(221.879169, 169.917243)"><g><path d="M 16.59375 -50.183594 C 17.164062 -54.171875 18.953125 -58.238281 18.953125 -61.816406 C 18.953125 -65.3125 14.234375 -65.3125 14.234375 -61.816406 C 14.234375 -58.238281 16.023438 -54.171875 16.59375 -50.183594 Z M 16.023438 -49.859375 C 12.933594 -52.21875 10.25 -55.960938 7.238281 -57.667969 C 4.148438 -59.457031 1.789062 -55.308594 4.800781 -53.601562 C 7.890625 -51.8125 12.363281 -51.324219 16.023438 -49.859375 Z M 17.164062 -49.859375 C 20.824219 -51.324219 25.296875 -51.8125 28.386719 -53.601562 C 31.394531 -55.308594 28.957031 -59.457031 25.945312 -57.667969 C 22.9375 -55.960938 20.253906 -52.300781 17.164062 -49.859375 Z M 7.320312 -41.15625 C 10.328125 -42.945312 12.933594 -46.605469 16.105469 -49.046875 C 12.445312 -47.5 7.890625 -47.011719 4.878906 -45.304688 C 1.871094 -43.515625 4.148438 -39.367188 7.320312 -41.15625 Z M 25.945312 -41.15625 C 28.957031 -39.367188 31.394531 -43.515625 28.386719 -45.304688 C 25.296875 -47.011719 20.824219 -47.5 17.164062 -49.046875 C 20.253906 -46.605469 22.9375 -42.945312 25.945312 -41.15625 Z M 14.234375 -37.089844 C 14.234375 -33.59375 18.953125 -33.59375 18.953125 -37.089844 C 18.953125 -40.585938 17.164062 -44.734375 16.59375 -48.640625 C 16.023438 -44.734375 14.234375 -40.585938 14.234375 -37.089844 Z M 14.234375 -37.089844 "/></g></g></g></svg>